<svg width="121" height="56" viewBox="0 0 121 56" fill="none" xmlns="http://www.w3.org/2000/svg">
<g id="dollar-1 1" clip-path="url(#clip0_110_14328)">
<path id="Vector" d="M18.0314 12.2593C17.7567 12.4341 17.7068 13.4078 17.7318 16.9781C17.7567 20.049 17.7068 21.522 17.507 21.6469C17.3571 21.7467 16.583 21.547 15.8088 21.2224C14.66 20.748 13.9357 20.6482 12.0127 20.6482C8.49138 20.6731 6.51844 21.4721 4.12093 23.8689C2.74737 25.2421 2.17296 26.1659 1.2739 28.3879C0.399811 30.5351 0.774421 34.5547 2.09804 37.2262C2.92218 38.899 5.11989 40.9712 7.14279 41.9948C8.86599 42.8437 8.94092 42.8687 12.0127 42.8687C15.3093 42.8687 15.6589 42.7688 18.3811 41.121C19.1553 40.6716 19.1553 40.6716 19.8795 41.3457C21.0783 42.4442 22.6017 43.0185 24.0752 42.9436L25.3738 42.8687V37.9003L24.3748 37.4009L23.3759 36.8766L23.301 24.7927C23.276 16.3788 23.1511 12.6089 22.9763 12.3592C22.6516 11.9847 18.6058 11.8848 18.0314 12.2593ZM13.3613 26.3656C16.8577 27.4142 18.6308 31.1842 17.0575 34.2052C15.2094 37.7505 11.0138 38.5744 8.29159 35.9529C6.54341 34.305 5.96901 32.5324 6.51844 30.5101C7.14279 28.1632 9.41542 26.2657 11.9128 26.041C12.0627 26.0161 12.712 26.1659 13.3613 26.3656ZM53.7442 12.3842C53.5445 12.6089 53.4945 16.8532 53.5195 27.7887L53.5944 42.8687H58.9888V27.6639C58.9888 15.48 58.9139 12.4091 58.6641 12.2593C58.0897 11.8848 54.0689 11.9847 53.7442 12.3842ZM63.9836 12.3842C63.7838 12.6089 63.7338 16.8532 63.7588 27.7887L63.8337 42.8687H69.328L69.4029 27.7637C69.4529 13.7823 69.4279 12.6338 69.0283 12.3342C68.4289 11.9098 64.3582 11.9347 63.9836 12.3842ZM90.1813 20.1488C90.0065 20.3735 89.9315 20.8229 90.0065 21.2724C90.3062 22.7204 89.6568 23.2198 88.7827 22.2461C86.2604 19.4747 80.0169 20.2737 76.4206 23.819C74.7723 25.4418 73.8483 27.2394 73.2989 29.861C72.9492 31.5587 72.9492 31.9582 73.2989 33.7807C73.9981 37.5258 76.2708 40.4719 79.6922 42.0947C81.2156 42.8187 81.4903 42.8687 84.3124 42.8687C87.1844 42.8687 87.3842 42.8437 88.9326 42.0697C89.8317 41.6203 90.7307 41.121 90.9805 40.9462C91.3051 40.6966 91.5299 40.7715 92.2541 41.4206C93.4279 42.4442 95.0762 43.0434 96.4498 42.9436L97.5486 42.8687L97.6235 40.347L97.6985 37.8004L96.7245 37.4259C96.0252 37.1513 95.7005 36.8267 95.5757 36.3523C95.4758 35.9778 95.4258 32.2078 95.4508 27.9385C95.4758 21.5969 95.4258 20.1738 95.1511 19.999C94.9513 19.8742 93.8275 19.7743 92.6537 19.7743C91.0304 19.7743 90.4061 19.8742 90.1813 20.1488ZM86.585 26.6902C88.533 27.589 89.9315 29.7361 89.9315 31.8333C89.9315 33.4811 89.4321 34.5797 88.0585 35.878C85.9357 37.9502 82.9638 38.0251 80.6912 36.0527C79.2926 34.8793 78.6933 33.606 78.6933 31.8833C78.6933 29.9359 79.4675 28.5127 81.2156 27.1895C82.739 26.041 84.7619 25.8413 86.585 26.6902ZM101.919 20.2737C101.744 20.5982 101.694 24.4681 101.719 31.8084L101.794 42.8687H107.039L107.164 36.627C107.313 29.5863 107.313 29.5613 109.236 27.7138C110.535 26.4655 112.009 25.9412 113.557 26.1908C114.181 26.2907 114.431 26.1908 114.881 25.6416C115.155 25.267 115.405 24.7927 115.405 24.6179C115.405 24.4182 115.505 24.0686 115.655 23.819C115.78 23.5943 116.079 22.9701 116.304 22.4458C116.704 21.547 116.704 21.4971 116.254 21.1475C115.63 20.6981 113.032 20.4235 111.384 20.6482C110.21 20.8229 109.936 20.9727 108.787 22.1712C108.088 22.9202 107.438 23.4445 107.338 23.3446C107.239 23.2697 107.164 22.5457 107.164 21.7717C107.164 20.9977 107.039 20.2487 106.864 20.0739C106.664 19.8742 105.74 19.7743 104.367 19.7743C102.468 19.7743 102.144 19.8243 101.919 20.2737ZM35.738 20.8978C33.5653 21.522 32.2167 22.296 30.7432 23.769C29.02 25.5167 28.1209 27.1645 27.5965 29.6113C27.2219 31.309 27.1969 31.8084 27.4716 33.4811C28.1959 37.9003 30.968 41.1959 35.0637 42.5191C36.3124 42.9436 37.1116 43.0185 39.1095 42.9436C41.3072 42.8437 41.8067 42.7438 43.3551 42.0198C47.8504 39.8727 50.2978 35.1789 49.5486 30.0357C48.9243 25.8413 46.3769 22.8453 41.8816 21.0476C40.6579 20.5483 37.2864 20.4734 35.738 20.8978ZM40.6579 26.5404C41.6319 26.8899 43.2801 28.5876 43.7547 29.7111C44.4539 31.334 44.379 32.8819 43.5049 34.4049C41.2073 38.3996 36.3374 38.4995 33.7151 34.6296C32.5164 32.857 32.5913 30.61 33.8899 28.7125C35.4383 26.4904 38.1605 25.6166 40.6579 26.5404ZM113.582 37.0015C111.959 38.0251 111.409 40.3221 112.408 41.9199C113.407 43.5927 115.205 44.117 116.953 43.2682C120.4 41.6203 119.226 36.4522 115.405 36.5271C114.781 36.5271 113.982 36.7268 113.582 37.0015Z" fill="#9B99AB"/>
</g>
<defs>
<clipPath id="clip0_110_14328">
<rect width="120" height="56" fill="white" transform="translate(0.399902)"/>
</clipPath>
</defs>
</svg>
