<svg width="40" height="40" viewBox="0 0 40 40" fill="none" xmlns="http://www.w3.org/2000/svg">
<g id="gift-01">
<path id="Icon" d="M20 9.99967V36.6663M20 9.99967H14.1072C13.2389 9.99967 12.4062 9.64849 11.7923 9.02336C11.1783 8.39824 10.8334 7.5504 10.8334 6.66634C10.8334 5.78229 11.1783 4.93444 11.7923 4.30932C12.4062 3.6842 13.2389 3.33301 14.1072 3.33301C18.6905 3.33301 20 9.99967 20 9.99967ZM20 9.99967H25.8929C26.7612 9.99967 27.5939 9.64849 28.2078 9.02336C28.8218 8.39824 29.1667 7.5504 29.1667 6.66634C29.1667 5.78229 28.8218 4.93444 28.2078 4.30932C27.5939 3.6842 26.7612 3.33301 25.8929 3.33301C21.3096 3.33301 20 9.99967 20 9.99967ZM33.3334 18.333V31.333C33.3334 33.1999 33.3334 34.1333 32.9701 34.8463C32.6505 35.4735 32.1405 35.9835 31.5133 36.303C30.8003 36.6663 29.8669 36.6663 28 36.6663L12 36.6663C10.1332 36.6663 9.19978 36.6663 8.48674 36.303C7.85953 35.9834 7.3496 35.4735 7.03002 34.8463C6.66671 34.1333 6.66671 33.1998 6.66671 31.333V18.333M3.33337 12.6663L3.33337 15.6663C3.33337 16.5998 3.33337 17.0665 3.51503 17.423C3.67482 17.7366 3.92979 17.9916 4.24339 18.1514C4.59991 18.333 5.06662 18.333 6.00004 18.333L34 18.333C34.9335 18.333 35.4002 18.333 35.7567 18.1514C36.0703 17.9916 36.3253 17.7366 36.4851 17.423C36.6667 17.0665 36.6667 16.5998 36.6667 15.6663V12.6663C36.6667 11.7329 36.6667 11.2662 36.4851 10.9097C36.3253 10.5961 36.0703 10.3411 35.7567 10.1813C35.4002 9.99968 34.9335 9.99968 34 9.99968L6.00004 9.99967C5.06662 9.99967 4.59991 9.99967 4.24339 10.1813C3.92979 10.3411 3.67482 10.5961 3.51503 10.9097C3.33337 11.2662 3.33337 11.7329 3.33337 12.6663Z" stroke="#43A548" stroke-width="3" stroke-linecap="round" stroke-linejoin="round"/>
</g>
</svg>
